<svg width="24" height="24" viewBox="0 0 24 24" xmlns="http://www.w3.org/2000/svg">
<path d="M9.77706 5.17832V17.9332C9.77706 17.9332 9.6118 20.6101 12.0348 20.6101C14.2197 20.6101 14.2197 17.9332 14.2197 17.9332V4.51859C14.2197 4.51859 14.2197 1 11.1099 1C8 1 8 4.51859 8 4.51859L8 17.9332C8 17.9332 8 22.9912 11.9984 22.9912C15.9968 22.9912 15.9968 17.9332 15.9968 17.9332V4.51859C15.9968 3.96881 15.1083 3.96881 15.1083 4.51859V17.9332C15.1083 17.9332 15.4317 21.9916 11.9984 21.9916C8.88853 21.9916 8.88853 17.9332 8.88853 17.9332V4.51859C8.88853 4.51859 8.88853 1.9996 11.1099 1.9996C13.3312 1.9996 13.3312 4.51859 13.3312 4.51859V17.9332C13.3312 17.9332 13.3312 19.5106 12.0348 19.5106C10.7385 19.5106 10.6656 17.9332 10.6656 17.9332V5.17832C10.6656 4.62854 9.77706 4.62854 9.77706 5.17832Z" />
</svg>
