<svg width="25" height="24" viewBox="0 0 25 24" fill="none" xmlns="http://www.w3.org/2000/svg">
<path d="M13.5 4.9V4.9C13.5 3.11148 13.5 2.21721 12.9686 1.6424C12.9331 1.60394 12.8961 1.5669 12.8576 1.53136C12.2828 1 11.3885 1 9.6 1H5.5C3.61438 1 2.67157 1 2.08579 1.58579C1.5 2.17157 1.5 3.11438 1.5 5V10.4C1.5 11.8999 1.5 12.6498 1.88197 13.1756C2.00532 13.3454 2.15464 13.4947 2.32443 13.618C2.85016 14 3.60011 14 5.1 14V14" stroke="#736035"/>
<rect x="10.5" y="9" width="13" height="14" rx="2" stroke="#736035"/>
</svg>
