<svg width="24" height="24" viewBox="0 0 24 24" xmlns="http://www.w3.org/2000/svg">
<path fill-rule="evenodd" clip-rule="evenodd" d="M4.96342 0.5H9.13462C9.99947 0.499988 10.6966 0.499978 11.2474 0.570465C11.8185 0.643549 12.3026 0.7996 12.697 1.1642C12.7451 1.20863 12.7914 1.25493 12.8358 1.303C13.2004 1.69741 13.3565 2.18153 13.4295 2.75259C13.5 3.30335 13.5 4.00052 13.5 4.86537V4.9H12.5C12.5 3.99236 12.499 3.3594 12.4376 2.87953C12.3779 2.41262 12.2682 2.1622 12.1015 1.9818C12.0748 1.95296 12.047 1.92518 12.0182 1.89852C11.8378 1.73176 11.5874 1.62213 11.1205 1.56238C10.6406 1.50096 10.0076 1.5 9.1 1.5H5C4.04306 1.5 3.37565 1.50106 2.87208 1.56877C2.3829 1.63453 2.12385 1.75483 1.93934 1.93934C1.75483 2.12385 1.63453 2.3829 1.56877 2.87208C1.50106 3.37565 1.5 4.04306 1.5 5V10.4C1.5 11.1611 1.50069 11.6917 1.54484 12.0992C1.58797 12.4974 1.66774 12.7183 1.78647 12.8817C1.87899 13.009 1.99098 13.121 2.11832 13.2135C2.28175 13.3323 2.50261 13.412 2.90076 13.4552C3.30827 13.4993 3.83892 13.5 4.6 13.5V14.5H4.57117C3.84571 14.5 3.26074 14.5 2.79305 14.4493C2.30982 14.397 1.89284 14.2858 1.53054 14.0225C1.3183 13.8683 1.13166 13.6817 0.977458 13.4695C0.714228 13.1072 0.60301 12.6902 0.550655 12.207C0.499985 11.7393 0.499992 11.1543 0.5 10.4289L0.5 4.96342C0.499987 4.05169 0.499976 3.31681 0.577683 2.73883C0.65836 2.13876 0.830956 1.63351 1.23223 1.23223C1.63351 0.830956 2.13876 0.65836 2.73883 0.577683C3.31681 0.499976 4.05169 0.499987 4.96342 0.5Z" />
<path fill-rule="evenodd" clip-rule="evenodd" d="M13.9634 8.5H19.0366C19.9483 8.49999 20.6832 8.49998 21.2612 8.57768C21.8612 8.65836 22.3665 8.83096 22.7678 9.23223C23.169 9.63351 23.3416 10.1388 23.4223 10.7388C23.5 11.3168 23.5 12.0517 23.5 12.9634V19.0366C23.5 19.9483 23.5 20.6832 23.4223 21.2612C23.3416 21.8612 23.169 22.3665 22.7678 22.7678C22.3665 23.169 21.8612 23.3416 21.2612 23.4223C20.6832 23.5 19.9483 23.5 19.0366 23.5H13.9634C13.0517 23.5 12.3168 23.5 11.7388 23.4223C11.1388 23.3416 10.6335 23.169 10.2322 22.7678C9.83096 22.3665 9.65836 21.8612 9.57768 21.2612C9.49998 20.6832 9.49999 19.9483 9.5 19.0366V12.9634C9.49999 12.0517 9.49998 11.3168 9.57768 10.7388C9.65836 10.1388 9.83096 9.63351 10.2322 9.23223C10.6335 8.83096 11.1388 8.65836 11.7388 8.57768C12.3168 8.49998 13.0517 8.49999 13.9634 8.5ZM11.8721 9.56877C11.3829 9.63453 11.1238 9.75483 10.9393 9.93934C10.7548 10.1238 10.6345 10.3829 10.5688 10.8721C10.5011 11.3756 10.5 12.0431 10.5 13V19C10.5 19.9569 10.5011 20.6244 10.5688 21.1279C10.6345 21.6171 10.7548 21.8762 10.9393 22.0607C11.1238 22.2452 11.3829 22.3655 11.8721 22.4312C12.3756 22.4989 13.0431 22.5 14 22.5H19C19.9569 22.5 20.6244 22.4989 21.1279 22.4312C21.6171 22.3655 21.8762 22.2452 22.0607 22.0607C22.2452 21.8762 22.3655 21.6171 22.4312 21.1279C22.4989 20.6244 22.5 19.9569 22.5 19V13C22.5 12.0431 22.4989 11.3756 22.4312 10.8721C22.3655 10.3829 22.2452 10.1238 22.0607 9.93934C21.8762 9.75483 21.6171 9.63453 21.1279 9.56877C20.6244 9.50106 19.9569 9.5 19 9.5H14C13.0431 9.5 12.3756 9.50106 11.8721 9.56877Z" />
</svg>
