<svg width="36" height="36" viewBox="0 0 36 36" xmlns="http://www.w3.org/2000/svg">
<path d="M10.7932 16.2705C9.45465 16.9012 4.42079 17.0588 2.07119 17.0588H2C2.01186 14.8133 2.03559 10.272 2.03559 10.0714C1.97863 8.72406 2.17799 7.36002 2.28479 6.84641C3.56639 2.71845 7.49427 1.90145 9.29801 2.00895H17.0588C16.9164 8.74556 16.2044 11.003 15.9552 11.7555C14.638 15.1597 11.3272 16.1272 10.7932 16.2705Z" />
<path d="M25.2068 16.2705C26.5454 16.9012 31.5792 17.0588 33.9288 17.0588H34C33.9881 14.8133 33.9644 10.272 33.9644 10.0714C34.0214 8.72406 33.822 7.36002 33.7152 6.84641C32.4336 2.71845 28.5057 1.90145 26.702 2.00895H18.9412C19.0836 8.74556 19.7956 11.003 20.0448 11.7555C21.362 15.1597 24.6728 16.1272 25.2068 16.2705Z" />
<path d="M10.7932 19.7295C9.45465 19.0988 4.42079 18.9412 2.07119 18.9412H2C2.01186 21.1867 2.03559 25.728 2.03559 25.9286C1.97863 27.2759 2.17799 28.64 2.28479 29.1536C3.56639 33.2816 7.49427 34.0985 9.29801 33.991H17.0588C16.9164 27.2544 16.2044 24.997 15.9552 24.2445C14.638 20.8403 11.3272 19.8728 10.7932 19.7295Z" />
<path d="M25.2068 19.7295C26.5454 19.0988 31.5792 18.9412 33.9288 18.9412H34C33.9881 21.1867 33.9644 25.728 33.9644 25.9286C34.0214 27.2759 33.822 28.64 33.7152 29.1536C32.4336 33.2816 28.5057 34.0985 26.702 33.991H18.9412C19.0836 27.2544 19.7956 24.997 20.0448 24.2445C21.362 20.8403 24.6728 19.8728 25.2068 19.7295Z" />
</svg>
