<svg width="24" height="24" viewBox="0 0 24 24" xmlns="http://www.w3.org/2000/svg">
<path fill-rule="evenodd" clip-rule="evenodd" d="M13.1121 4.02766C13.0104 4.00324 12.8966 4.00003 12.5059 4.00003H7.9C7.47171 4.00003 7.18056 4.00042 6.95552 4.01881C6.73631 4.03672 6.62421 4.06918 6.54601 4.10903C6.35785 4.2049 6.20487 4.35788 6.10899 4.54604C6.06915 4.62424 6.03669 4.73634 6.01878 4.95555C6.00039 5.1806 6 5.47174 6 5.90003V18.1C6 18.5283 6.00039 18.8195 6.01878 19.0445C6.03669 19.2637 6.06915 19.3758 6.10899 19.454C6.20487 19.6422 6.35785 19.7952 6.54601 19.891C6.62421 19.9309 6.73631 19.9633 6.95552 19.9813C7.18056 19.9996 7.47171 20 7.9 20H16.1C16.5283 20 16.8194 19.9996 17.0445 19.9813C17.2637 19.9633 17.3758 19.9309 17.454 19.891C17.6422 19.7952 17.7951 19.6422 17.891 19.454C17.9309 19.3758 17.9633 19.2637 17.9812 19.0445C17.9996 18.8195 18 18.5283 18 18.1V9.49414C18 9.10346 17.9968 8.98961 17.9724 8.88791C17.9479 8.78587 17.9075 8.68833 17.8526 8.59885C17.798 8.50967 17.7198 8.4269 17.4435 8.15064L13.8494 4.55653C13.5731 4.28027 13.4904 4.20204 13.4012 4.14739C13.3117 4.09256 13.2142 4.05216 13.1121 4.02766ZM12.5568 3.00002C12.8743 2.99986 13.1142 2.99975 13.3456 3.05529C13.5496 3.10429 13.7447 3.18509 13.9237 3.29475C14.1265 3.41906 14.2961 3.58878 14.5205 3.81339C14.5323 3.82525 14.5443 3.83726 14.5565 3.84942L18.1506 7.44354C18.1628 7.4557 18.1748 7.4677 18.1866 7.47955C18.4113 7.70394 18.581 7.87349 18.7053 8.07635C18.8149 8.2553 18.8957 8.45039 18.9447 8.65446C19.0003 8.88581 19.0002 9.12571 19 9.44321C19 9.45997 19 9.47694 19 9.49414V18.1207C19 18.5232 19 18.8553 18.9779 19.1259C18.9549 19.407 18.9057 19.6653 18.782 19.908C18.5903 20.2843 18.2843 20.5903 17.908 20.782C17.6653 20.9057 17.407 20.955 17.1259 20.9779C16.8553 21 16.5231 21 16.1207 21H7.87934C7.47686 21 7.14468 21 6.87409 20.9779C6.59304 20.955 6.33469 20.9057 6.09202 20.782C5.7157 20.5903 5.40973 20.2843 5.21799 19.908C5.09434 19.6653 5.04506 19.407 5.0221 19.1259C4.99999 18.8553 4.99999 18.5232 5 18.1207V5.87938C4.99999 5.4769 4.99999 5.14472 5.0221 4.87412C5.04506 4.59307 5.09434 4.33472 5.21799 4.09205C5.40973 3.71573 5.7157 3.40977 6.09202 3.21802C6.33469 3.09437 6.59304 3.04509 6.87409 3.02213C7.14469 3.00002 7.47687 3.00002 7.87935 3.00003L12.5059 3.00003C12.5231 3.00003 12.5401 3.00002 12.5568 3.00002Z" />
<path fill-rule="evenodd" clip-rule="evenodd" d="M12 3.5H13V7.1C13 7.52829 13.0004 7.81944 13.0188 8.04448C13.0367 8.26369 13.0691 8.37579 13.109 8.45399C13.2049 8.64215 13.3578 8.79513 13.546 8.89101C13.6242 8.93085 13.7363 8.96331 13.9555 8.98122C14.1806 8.99961 14.4717 9 14.9 9H18.5V10H14.8794C14.4769 10 14.1447 10 13.8741 9.9779C13.593 9.95494 13.3347 9.90566 13.092 9.78201C12.7157 9.59027 12.4097 9.28431 12.218 8.90798C12.0943 8.66531 12.0451 8.40696 12.0221 8.12591C12 7.85532 12 7.52313 12 7.12065L12 3.5Z" />
</svg>
