<svg width="16" height="16" viewBox="0 0 16 16" xmlns="http://www.w3.org/2000/svg">
<path fill-rule="evenodd" clip-rule="evenodd" d="M6.16602 5.3335C6.16602 5.05735 6.38987 4.8335 6.66602 4.8335L13.3327 4.8335C13.6088 4.8335 13.8327 5.05735 13.8327 5.3335C13.8327 5.60964 13.6088 5.8335 13.3327 5.8335L6.66602 5.8335C6.38987 5.8335 6.16602 5.60964 6.16602 5.3335Z" />
<path fill-rule="evenodd" clip-rule="evenodd" d="M2.16602 10.6665C2.16602 10.3904 2.38987 10.1665 2.66602 10.1665L9.33268 10.1665C9.60882 10.1665 9.83268 10.3904 9.83268 10.6665C9.83268 10.9426 9.60882 11.1665 9.33268 11.1665L2.66602 11.1665C2.38987 11.1665 2.16602 10.9426 2.16602 10.6665Z" />
<path fill-rule="evenodd" clip-rule="evenodd" d="M6.16602 5.3335C6.16602 4.50507 5.49444 3.8335 4.66602 3.8335C3.83759 3.8335 3.16602 4.50507 3.16602 5.3335C3.16602 6.16192 3.83759 6.8335 4.66602 6.8335C5.49444 6.8335 6.16602 6.16192 6.16602 5.3335ZM4.66602 2.8335C6.04673 2.8335 7.16602 3.95278 7.16602 5.3335C7.16602 6.71421 6.04673 7.8335 4.66602 7.8335C3.2853 7.8335 2.16602 6.71421 2.16602 5.3335C2.16602 3.95278 3.2853 2.8335 4.66602 2.8335Z" />
<path fill-rule="evenodd" clip-rule="evenodd" d="M12.834 10.6665C12.834 9.83808 12.1624 9.1665 11.334 9.1665C10.5056 9.1665 9.83398 9.83808 9.83398 10.6665C9.83398 11.4949 10.5056 12.1665 11.334 12.1665C12.1624 12.1665 12.834 11.4949 12.834 10.6665ZM11.334 8.1665C12.7147 8.1665 13.834 9.28579 13.834 10.6665C13.834 12.0472 12.7147 13.1665 11.334 13.1665C9.95327 13.1665 8.83398 12.0472 8.83398 10.6665C8.83398 9.28579 9.95327 8.1665 11.334 8.1665Z" />
</svg>
