<svg width="24" height="24" viewBox="0 0 24 24" xmlns="http://www.w3.org/2000/svg">
<path d="M14.2122 15.765C16.1456 15.3634 17.3042 14.43 17.3655 14.3799C17.9312 13.9173 18.0221 13.0748 17.5684 12.4979C17.1147 11.9211 16.2884 11.8284 15.7225 12.2909C15.7105 12.3008 14.4748 13.2672 12.4416 13.2687C10.4085 13.2672 9.14662 12.3008 9.13466 12.2909C8.56878 11.8284 7.74241 11.9211 7.28876 12.4979C6.83504 13.0748 6.92592 13.9173 7.49167 14.3799C7.5538 14.4307 8.76022 15.3885 10.7478 15.7806L7.97773 18.732C7.47432 19.2643 7.48946 20.1118 8.01153 20.625C8.26634 20.8755 8.59476 21 8.92291 21C9.26695 21 9.61064 20.863 9.86829 20.5905L12.4417 17.7957L15.275 20.6086C15.7883 21.1311 16.6196 21.1303 17.132 20.6071C17.6444 20.0839 17.6438 19.2362 17.1306 18.7138L14.2122 15.765Z" />
<path d="M12.5072 2C9.84001 2 7.67785 4.20443 7.67785 6.92364C7.67785 9.64293 9.84001 11.8475 12.5072 11.8475C15.1745 11.8475 17.3366 9.64293 17.3366 6.92364C17.3366 4.20443 15.1745 2 12.5072 2ZM12.5072 8.95911C11.4047 8.95911 10.5109 8.04777 10.5109 6.92371C10.5109 5.79966 11.4047 4.88839 12.5072 4.88839C13.6098 4.88839 14.5036 5.79966 14.5036 6.92371C14.5036 8.04777 13.6098 8.95911 12.5072 8.95911Z" />
</svg>
