<svg width="25" height="25" viewBox="0 0 25 25" xmlns="http://www.w3.org/2000/svg">
<path d="M19 12.5C19 13.0128 18.5843 13.4286 18.0714 13.4286H14.4286C13.8763 13.4286 13.4286 13.8763 13.4286 14.4286V18.0714C13.4286 18.5843 13.0128 19 12.5 19V19C11.9872 19 11.5714 18.5843 11.5714 18.0714V14.4286C11.5714 13.8763 11.1237 13.4286 10.5714 13.4286H6.92857C6.41574 13.4286 6 13.0128 6 12.5V12.5C6 11.9872 6.41574 11.5714 6.92857 11.5714H10.5714C11.1237 11.5714 11.5714 11.1237 11.5714 10.5714V6.92857C11.5714 6.41574 11.9872 6 12.5 6V6C13.0128 6 13.4286 6.41574 13.4286 6.92857V10.5714C13.4286 11.1237 13.8763 11.5714 14.4286 11.5714H18.0714C18.5843 11.5714 19 11.9872 19 12.5V12.5Z" />
</svg>
