<svg width="16" height="16" viewBox="0 0 16 16" fill="none" xmlns="http://www.w3.org/2000/svg">
<path d="M2 2V1.5H1.5V2H2ZM8.31311 9.02022C8.50838 9.21548 8.82496 9.21548 9.02022 9.02022C9.21548 8.82496 9.21548 8.50838 9.02022 8.31311L8.31311 9.02022ZM2.5 7.33333V2H1.5V7.33333H2.5ZM2 2.5H7.33333V1.5H2V2.5ZM1.64645 2.35355L8.31311 9.02022L9.02022 8.31311L2.35355 1.64645L1.64645 2.35355Z" fill="#736035"/>
<path d="M2.6665 9.99984V9.99984C2.6665 10.3094 2.6665 10.4642 2.67792 10.5946C2.80481 12.045 3.9547 13.1949 5.40504 13.3218C5.53552 13.3332 5.69029 13.3332 5.99984 13.3332H7.99984C10.186 13.3332 11.2791 13.3332 12.0539 12.7906C12.3406 12.5899 12.5899 12.3406 12.7906 12.0539C13.3332 11.2791 13.3332 10.186 13.3332 7.99984V5.99984C13.3332 5.69029 13.3332 5.53552 13.3218 5.40504C13.1949 3.9547 12.045 2.80481 10.5946 2.67792C10.4642 2.6665 10.3094 2.6665 9.99984 2.6665V2.6665" stroke="#736035" stroke-linecap="round"/>
</svg>
