<svg width="24" height="24" viewBox="0 0 24 24" xmlns="http://www.w3.org/2000/svg">
<path fill-rule="evenodd" clip-rule="evenodd" d="M7.26574 7.55511C6.64583 7.50045 5.86454 7.5 4.77985 7.5H3V6.5H4.80369C5.85945 6.5 6.68467 6.49999 7.35357 6.55897C8.03597 6.61914 8.59502 6.74314 9.11113 7.01335C9.5302 7.23276 9.91205 7.51687 10.2426 7.85522C10.6497 8.27192 10.9292 8.77176 11.1829 9.4081C11.4316 10.0318 11.6687 10.8223 11.9721 11.8335L11.9789 11.8563C12.2906 12.8953 12.5155 13.6435 12.746 14.2215C12.9733 14.7917 13.1923 15.159 13.4727 15.4459C13.7298 15.7091 14.0268 15.9301 14.3527 16.1007C14.7081 16.2868 15.1228 16.391 15.7343 16.4449C16.3542 16.4996 17.1355 16.5 18.2202 16.5H19.7929L17.6464 14.3536L18.3536 13.6464L21.7071 17L18.3536 20.3536L17.6464 19.6464L19.7929 17.5H18.1963C17.1406 17.5 16.3153 17.5 15.6464 17.441C14.964 17.3809 14.405 17.2569 13.8889 16.9866C13.4698 16.7672 13.0879 16.4831 12.7574 16.1448C12.3503 15.7281 12.0708 15.2282 11.8171 14.5919C11.5684 13.9682 11.3313 13.1777 11.0279 12.1665L11.0211 12.1437C10.7094 11.1047 10.4845 10.3565 10.254 9.77846C10.0267 9.20831 9.80773 8.84104 9.52735 8.55406C9.27024 8.2909 8.97324 8.06992 8.6473 7.89927C8.29185 7.71318 7.87716 7.60902 7.26574 7.55511Z" />
<path fill-rule="evenodd" clip-rule="evenodd" d="M21.3536 6.64648L18.3536 3.64648L17.6464 4.35359L19.7929 6.50004H18.2202H18.1963C17.1406 6.50003 16.3153 6.50003 15.6464 6.55901C14.964 6.61918 14.405 6.74317 13.8889 7.01339C13.4698 7.2328 13.0879 7.51691 12.7574 7.85526C12.7386 7.87444 12.7202 7.8938 12.7019 7.91335C12.8289 8.16228 12.9399 8.41464 13.0406 8.66741C13.0782 8.7617 13.1154 8.85879 13.1523 8.95851C13.2519 8.80434 13.3571 8.6724 13.4727 8.5541C13.7298 8.29094 14.0268 8.06996 14.3527 7.89931C14.7081 7.71321 15.1228 7.60905 15.7343 7.55514C16.3542 7.50049 17.1355 7.50004 18.2202 7.50004H19.7929L17.6464 9.64648L18.3536 10.3536L21.3536 7.35359L21.7071 7.00004L21.3536 6.64648ZM10.2981 16.0867C10.1711 15.8378 10.0601 15.5854 9.95935 15.3327C9.92175 15.2384 9.88456 15.1413 9.84766 15.0416C9.74807 15.1957 9.64293 15.3277 9.52735 15.446C9.27024 15.7091 8.97324 15.9301 8.6473 16.1008C8.29185 16.2869 7.87716 16.391 7.26574 16.4449C6.64583 16.4996 5.86454 16.5 4.77985 16.5H3V17.5H4.77985H4.80369C5.85944 17.5 6.68467 17.5 7.35357 17.4411C8.03597 17.3809 8.59502 17.2569 9.11113 16.9867C9.5302 16.7673 9.91205 16.4832 10.2426 16.1448C10.2614 16.1256 10.2798 16.1063 10.2981 16.0867Z" />
</svg>
