<svg width="25" height="24" viewBox="0 0 25 24" fill="none" xmlns="http://www.w3.org/2000/svg">
<path d="M1.88859 11.1846L6.95783 13.0766L8.91994 19.3867C9.04549 19.7909 9.53968 19.9403 9.8677 19.6721L12.6934 17.3685C12.9896 17.1272 13.4115 17.1152 13.721 17.3398L18.8175 21.04C19.1684 21.2951 19.6656 21.1028 19.7536 20.6788L23.487 2.72009C23.5831 2.25692 23.128 1.87053 22.687 2.0411L1.88265 10.0668C1.36924 10.2648 1.37371 10.9917 1.88859 11.1846ZM8.60373 12.0694L18.5109 5.96759C18.689 5.85825 18.8722 6.09901 18.7193 6.24083L10.543 13.8411C10.2556 14.1086 10.0702 14.4666 10.0177 14.8552L9.73915 16.9193C9.70226 17.1949 9.31513 17.2222 9.23909 16.9555L8.16791 13.1917C8.04522 12.7624 8.22401 12.3038 8.60373 12.0694Z" fill="#736035"/>
</svg>
