<svg width="24" height="24" viewBox="0 0 24 24"  xmlns="http://www.w3.org/2000/svg">
<path d="M1.38859 11.1846L6.45783 13.0766L8.41994 19.3867C8.54549 19.7909 9.03968 19.9402 9.3677 19.6721L12.1934 17.3685C12.4896 17.1272 12.9115 17.1152 13.221 17.3398L18.3175 21.04C18.6684 21.2951 19.1656 21.1028 19.2536 20.6788L22.987 2.72009C23.0831 2.25692 22.628 1.87053 22.187 2.0411L1.38265 10.0668C0.869238 10.2648 0.873711 10.9917 1.38859 11.1846ZM8.10373 12.0694L18.0109 5.96759C18.189 5.85825 18.3722 6.09901 18.2193 6.24083L10.043 13.8411C9.75556 14.1086 9.57018 14.4666 9.51767 14.8552L9.23915 16.9193C9.20226 17.1949 8.81513 17.2222 8.73909 16.9555L7.66791 13.1917C7.54522 12.7624 7.72401 12.3038 8.10373 12.0694Z" />
</svg>
