<svg width="24" height="24" viewBox="0 0 24 24" xmlns="http://www.w3.org/2000/svg">
<path fill-rule="evenodd" clip-rule="evenodd" d="M9.5 15C9.22386 15 9 14.7761 9 14.5V11.5C9 11.2239 9.22386 11 9.5 11C9.77614 11 10 11.2239 10 11.5V14.5C10 14.7761 9.77614 15 9.5 15Z" />
<path fill-rule="evenodd" clip-rule="evenodd" d="M14.5 15C14.2239 15 14 14.7761 14 14.5V11.5C14 11.2239 14.2239 11 14.5 11C14.7761 11 15 11.2239 15 11.5V14.5C15 14.7761 14.7761 15 14.5 15Z" />
<path fill-rule="evenodd" clip-rule="evenodd" d="M4.59247 7.03957C4.20948 7.0006 3.71264 7 3 7V6C3.00901 6 3.018 6 3.02697 6C3.04511 6 3.06316 6 3.08111 6H20.9189C20.9368 6 20.9549 6 20.973 6L21 6V7C20.2874 7 19.7905 7.0006 19.4075 7.03957C19.0329 7.07768 18.823 7.14831 18.6666 7.2528C18.5029 7.36223 18.3622 7.50286 18.2528 7.66664C18.1483 7.82302 18.0777 8.03289 18.0396 8.40753C18.0006 8.79052 18 9.28736 18 10V15.5366C18 16.4483 18 17.1832 17.9223 17.7612C17.8416 18.3612 17.669 18.8665 17.2678 19.2678C16.8665 19.669 16.3612 19.8416 15.7612 19.9223C15.1832 20 14.4483 20 13.5366 20H10.4634C9.5517 20 8.81681 20 8.23883 19.9223C7.63876 19.8416 7.13351 19.669 6.73223 19.2678C6.33096 18.8665 6.15836 18.3612 6.07768 17.7612C5.99997 17.1832 5.99999 16.4483 6 15.5366L6 10C6 9.28736 5.9994 8.79052 5.96043 8.40753C5.92232 8.03289 5.85169 7.82302 5.7472 7.66664C5.63777 7.50286 5.49714 7.36223 5.33336 7.2528C5.17698 7.14831 4.96711 7.07768 4.59247 7.03957ZM17.5 7H6.5C6.5272 7.03626 6.55343 7.0733 6.57867 7.11107C6.81125 7.45915 6.90915 7.85262 6.9553 8.30632C7.00001 8.74587 7.00001 9.29369 7 9.97302V15.5C7 16.4569 7.00106 17.1244 7.06876 17.6279C7.13453 18.1171 7.25483 18.3762 7.43934 18.5607C7.62385 18.7452 7.8829 18.8655 8.37208 18.9312C8.87565 18.9989 9.54306 19 10.5 19H13.5C14.4569 19 15.1244 18.9989 15.6279 18.9312C16.1171 18.8655 16.3762 18.7452 16.5607 18.5607C16.7452 18.3762 16.8655 18.1171 16.9312 17.6279C16.9989 17.1244 17 16.4569 17 15.5V9.97302C17 9.29369 17 8.74587 17.0447 8.30632C17.0909 7.85262 17.1888 7.45915 17.4213 7.11107C17.4466 7.0733 17.4728 7.03626 17.5 7Z" />
<path fill-rule="evenodd" clip-rule="evenodd" d="M14.2773 2.58397C13.8113 2.27331 13.0875 2 12 2C10.9125 2 10.1886 2.27338 9.7226 2.58413C9.49191 2.73796 9.33159 2.89624 9.22522 3.02391C9.17217 3.08759 9.13275 3.14339 9.10477 3.18693C9.09078 3.2087 9.07963 3.22742 9.07106 3.24255C9.06678 3.25011 9.06313 3.25678 9.0601 3.26249L9.05599 3.27033L9.05427 3.27369L9.05349 3.27523C9.05331 3.27559 9.05276 3.27668 9.5 3.50024L9.05276 3.27668C8.92929 3.52368 9.02943 3.82401 9.27643 3.94748C9.51993 4.0692 9.81526 3.9736 9.94188 3.73422C9.94265 3.73293 9.94402 3.73069 9.94601 3.7276C9.95318 3.71643 9.96845 3.69409 9.99352 3.664C10.0434 3.60412 10.1331 3.51234 10.2774 3.41612C10.5614 3.22674 11.0875 3 12 3C12.9125 3 13.4386 3.22669 13.7226 3.41603C13.867 3.51223 13.9566 3.60398 14.0065 3.66384C14.0316 3.69392 14.0468 3.71625 14.054 3.72741C14.056 3.7305 14.0574 3.73273 14.0581 3.73402C14.1848 3.97339 14.4801 4.06896 14.7236 3.94721C14.9706 3.82372 15.0707 3.52338 14.9472 3.27639L14.5 3.5C14.9472 3.27639 14.9474 3.27675 14.9472 3.27639L14.9465 3.27495L14.9457 3.27341L14.944 3.27004L14.9399 3.26221C14.9368 3.2565 14.9332 3.24983 14.9289 3.24226C14.9203 3.22714 14.9092 3.20842 14.8952 3.18665C14.8672 3.14312 14.8278 3.08733 14.7747 3.02366C14.6684 2.89602 14.508 2.73777 14.2773 2.58397Z" />
</svg>
