<svg width="24" height="24" viewBox="0 0 24 24"  xmlns="http://www.w3.org/2000/svg">
<path fill-rule="evenodd" clip-rule="evenodd" d="M20.6684 14.537C21.4649 15.3949 22.3075 16.2023 23.0224 17.1488C23.3392 17.5676 23.6378 18.0006 23.865 18.4875C24.1895 19.1819 23.8965 19.9434 23.3329 19.9847L19.8321 19.9839C18.928 20.0664 18.2085 19.6643 17.6019 18.9826C17.1177 18.4393 16.6684 17.8591 16.202 17.2973C16.0115 17.0667 15.8108 16.8496 15.5717 16.6788C15.0944 16.3364 14.6798 16.4413 14.4064 16.9911C14.1277 17.5506 14.0641 18.1706 14.0375 18.7933C13.9994 19.7036 13.7505 19.9415 12.9222 19.9843C11.1525 20.0757 9.47324 19.7796 7.91253 18.7956C6.53573 17.9277 5.47008 16.7027 4.54149 15.3159C2.73326 12.6123 1.36565 9.98281 0.121347 6.93027C-0.158699 6.24281 0.0461782 5.87497 0.733882 5.86071C1.87644 5.83642 3.019 5.8395 4.16156 5.85955C4.62656 5.86765 4.93422 6.16107 5.11288 6.64495C5.73031 8.32024 6.47 9.5763 7.41852 11.0546C7.6713 11.4482 7.92932 11.8407 8.29677 12.1187C8.70233 12.4256 9.01139 12.3242 9.20263 11.8249C9.325 11.5076 9.37779 11.1683 9.40436 10.8282C9.49527 9.66344 9.5061 8.49902 9.34878 7.33885C9.25088 6.61283 8.88063 6.14398 8.2244 6.00672C7.89016 5.93693 7.93911 5.80044 8.10168 5.58992C8.38382 5.22594 8.64814 5.00077 9.17641 5.00077L13.1317 5C13.755 5.13495 13.8949 5.4434 13.9795 6.13588L13.983 10.9832C13.9757 11.2512 14.105 12.0455 14.5413 12.2209C14.891 12.3481 15.1217 12.0389 15.3308 11.7949C16.2793 10.6848 16.54 9.7025 17.1452 8.34646C17.4123 7.74845 17.6427 7.12961 17.8664 6.50962C18.0328 6.05118 18.2916 5.82562 18.7608 5.83333L22.5695 5.83835C22.6818 5.83835 22.7957 5.8395 22.9069 5.86071C23.5488 5.98178 23.7247 6.28637 23.5261 6.97693C23.2135 8.06191 23.0214 8.63783 22.4277 9.54391C21.7914 10.514 21.1128 11.4502 20.4828 12.4245C19.9038 13.3151 19.9496 13.7636 20.6684 14.537Z" />
</svg>
