<svg width="25" height="24" viewBox="0 0 25 24" xmlns="http://www.w3.org/2000/svg">
<path d="M12.494 0C5.94305 0 0.608378 5.33467 0.596336 11.8856C0.596336 13.9809 1.13823 16.0281 2.1859 17.8344L0.5 24L6.81009 22.3502C8.54416 23.3016 10.507 23.7953 12.494 23.7953C19.0449 23.7953 24.3796 18.4606 24.3916 11.8976C24.3916 8.71851 23.1513 5.73207 20.9114 3.48018C18.6596 1.24034 15.6731 0 12.494 0ZM12.494 21.7843C10.7117 21.7843 8.97767 21.3026 7.46036 20.4114L7.0991 20.1947L3.35399 21.1701L4.35349 17.5213L4.11264 17.148C3.12519 15.5705 2.59533 13.7521 2.60738 11.8856C2.60738 6.43051 7.03889 1.999 12.494 1.999C15.1312 1.999 17.6119 3.03462 19.4784 4.90116C21.345 6.76769 22.3685 9.24837 22.3685 11.8976C22.3685 17.3527 17.937 21.7843 12.494 21.7843ZM17.9129 14.3783C17.6119 14.2338 16.1548 13.5113 15.8778 13.415C15.6009 13.3186 15.4082 13.2705 15.2035 13.5595C15.0108 13.8605 14.4328 14.5228 14.2642 14.7275C14.0956 14.9202 13.915 14.9564 13.6259 14.7998C13.3249 14.6553 12.3736 14.3422 11.2416 13.3307C10.3625 12.5479 9.76041 11.5725 9.59182 11.2715C9.42323 10.9704 9.56774 10.8139 9.72429 10.6693C9.85675 10.5369 10.0253 10.3201 10.1698 10.1515C10.3144 9.98294 10.3625 9.85048 10.4709 9.6578C10.5672 9.46513 10.5191 9.2845 10.4468 9.13999C10.3746 8.99549 9.77245 7.52634 9.53161 6.93628C9.29077 6.35826 9.04993 6.43051 8.85725 6.43051C8.68866 6.41847 8.48394 6.41847 8.29127 6.41847C8.09859 6.41847 7.77346 6.49072 7.49649 6.79177C7.21952 7.09283 6.46086 7.80331 6.46086 9.27245C6.46086 10.7296 7.52057 12.1505 7.67712 12.3432C7.82163 12.5359 9.77245 15.5464 12.7589 16.8349C13.4694 17.136 14.0233 17.3287 14.4569 17.4611C15.1673 17.6899 15.8176 17.6538 16.3234 17.5815C16.8894 17.4972 18.0815 16.859 18.3344 16.1726C18.5873 15.4742 18.5873 14.8841 18.503 14.7637C18.4067 14.6071 18.214 14.5228 17.9129 14.3783Z"/>
</svg>
