<svg width="48" height="48" viewBox="0 0 48 48" xmlns="http://www.w3.org/2000/svg">
<path fill-rule="evenodd" clip-rule="evenodd" d="M8 18.5C7.72386 18.5 7.5 18.2761 7.5 18V10.9647C7.49998 10.2877 7.49997 9.72935 7.55938 9.28747C7.62175 8.82355 7.75773 8.41384 8.08579 8.08579C8.41384 7.75773 8.82355 7.62175 9.28747 7.55938C9.72935 7.49997 10.2877 7.49998 10.9647 7.5H18C18.2761 7.5 18.5 7.72386 18.5 8C18.5 8.27614 18.2761 8.5 18 8.5H11C10.2788 8.5 9.78813 8.50106 9.42072 8.55046C9.06769 8.59792 8.90418 8.68161 8.79289 8.79289C8.68161 8.90418 8.59792 9.06769 8.55046 9.42072C8.50106 9.78813 8.5 10.2788 8.5 11V18C8.5 18.2761 8.27614 18.5 8 18.5Z" />
<path fill-rule="evenodd" clip-rule="evenodd" d="M8 29.5C7.72386 29.5 7.5 29.7239 7.5 30V37.0353C7.49998 37.7123 7.49997 38.2706 7.55938 38.7125C7.62175 39.1764 7.75773 39.5862 8.08579 39.9142C8.41384 40.2423 8.82355 40.3783 9.28747 40.4406C9.72935 40.5 10.2877 40.5 10.9647 40.5H18C18.2761 40.5 18.5 40.2761 18.5 40C18.5 39.7239 18.2761 39.5 18 39.5H11C10.2788 39.5 9.78813 39.4989 9.42072 39.4495C9.06769 39.4021 8.90418 39.3184 8.79289 39.2071C8.68161 39.0958 8.59792 38.9323 8.55046 38.5793C8.50106 38.2119 8.5 37.7212 8.5 37V30C8.5 29.7239 8.27614 29.5 8 29.5Z" />
<path fill-rule="evenodd" clip-rule="evenodd" d="M40 18.5C40.2761 18.5 40.5 18.2761 40.5 18V10.9647C40.5 10.2877 40.5 9.72935 40.4406 9.28747C40.3783 8.82355 40.2423 8.41384 39.9142 8.08579C39.5862 7.75773 39.1764 7.62175 38.7125 7.55938C38.2706 7.49997 37.7123 7.49998 37.0353 7.5H30C29.7239 7.5 29.5 7.72386 29.5 8C29.5 8.27614 29.7239 8.5 30 8.5H37C37.7212 8.5 38.2119 8.50106 38.5793 8.55046C38.9323 8.59792 39.0958 8.68161 39.2071 8.79289C39.3184 8.90418 39.4021 9.06769 39.4495 9.42072C39.4989 9.78813 39.5 10.2788 39.5 11V18C39.5 18.2761 39.7239 18.5 40 18.5Z" />
<path fill-rule="evenodd" clip-rule="evenodd" d="M40 29.5C40.2761 29.5 40.5 29.7239 40.5 30V37.0353C40.5 37.7123 40.5 38.2706 40.4406 38.7125C40.3783 39.1764 40.2423 39.5862 39.9142 39.9142C39.5862 40.2423 39.1764 40.3783 38.7125 40.4406C38.2706 40.5 37.7123 40.5 37.0353 40.5H30C29.7239 40.5 29.5 40.2761 29.5 40C29.5 39.7239 29.7239 39.5 30 39.5H37C37.7212 39.5 38.2119 39.4989 38.5793 39.4495C38.9323 39.4021 39.0958 39.3184 39.2071 39.2071C39.3184 39.0958 39.4021 38.9323 39.4495 38.5793C39.4989 38.2119 39.5 37.7212 39.5 37V30C39.5 29.7239 39.7239 29.5 40 29.5Z" />
</svg>
