<svg width="25" height="24" viewBox="0 0 25 24" fill="none" xmlns="http://www.w3.org/2000/svg">
<g clip-path="url(#clip0_1022_35554)">
<path fill-rule="evenodd" clip-rule="evenodd" d="M21.1684 14.537C21.9649 15.3949 22.8075 16.2023 23.5224 17.1488C23.8392 17.5676 24.1378 18.0006 24.365 18.4875C24.6895 19.1819 24.3965 19.9434 23.8329 19.9847L20.3321 19.9839C19.428 20.0664 18.7085 19.6643 18.1019 18.9826C17.6177 18.4393 17.1684 17.8591 16.702 17.2973C16.5115 17.0667 16.3108 16.8496 16.0717 16.6788C15.5944 16.3364 15.1798 16.4413 14.9064 16.9911C14.6277 17.5506 14.5641 18.1706 14.5375 18.7933C14.4994 19.7036 14.2505 19.9415 13.4222 19.9843C11.6525 20.0757 9.97324 19.7796 8.41253 18.7956C7.03573 17.9277 5.97009 16.7027 5.04149 15.3159C3.23326 12.6123 1.86565 9.98281 0.621347 6.93027C0.341301 6.24281 0.546178 5.87497 1.23388 5.86071C2.37644 5.83642 3.519 5.8395 4.66156 5.85955C5.12656 5.86765 5.43422 6.16107 5.61288 6.64495C6.23031 8.32024 6.97 9.5763 7.91852 11.0546C8.1713 11.4482 8.42932 11.8407 8.79677 12.1187C9.20233 12.4256 9.51139 12.3242 9.70263 11.8249C9.825 11.5076 9.87779 11.1683 9.90436 10.8282C9.99527 9.66344 10.0061 8.49902 9.84878 7.33885C9.75088 6.61283 9.38063 6.14398 8.7244 6.00672C8.39016 5.93693 8.43911 5.80044 8.60168 5.58992C8.88382 5.22594 9.14814 5.00077 9.67641 5.00077L13.6317 5C14.255 5.13495 14.3949 5.4434 14.4795 6.13588L14.483 10.9832C14.4757 11.2512 14.605 12.0455 15.0413 12.2209C15.391 12.3481 15.6217 12.0389 15.8308 11.7949C16.7793 10.6848 17.04 9.7025 17.6452 8.34646C17.9123 7.74845 18.1427 7.12961 18.3664 6.50962C18.5328 6.05118 18.7916 5.82562 19.2608 5.83333L23.0695 5.83835C23.1818 5.83835 23.2957 5.8395 23.4069 5.86071C24.0488 5.98178 24.2247 6.28637 24.0261 6.97693C23.7135 8.06191 23.5214 8.63783 22.9277 9.54391C22.2914 10.514 21.6128 11.4502 20.9828 12.4245C20.4038 13.3151 20.4496 13.7636 21.1684 14.537Z" fill="#736035"/>
</g>
<defs>
<clipPath id="clip0_1022_35554">
<rect width="24" height="24" fill="white" transform="translate(0.5)"/>
</clipPath>
</defs>
</svg>
