<svg width="48" height="48" viewBox="0 0 48 48" fill="none" xmlns="http://www.w3.org/2000/svg">
<mask id="path-1-outside-1_723_35626" maskUnits="userSpaceOnUse" x="5" y="3" width="38" height="43" fill="black">
<rect fill="white" x="5" y="3" width="38" height="43"/>
<path fill-rule="evenodd" clip-rule="evenodd" d="M24.3897 44.0083C27.0137 42.7577 42 35.0267 42 21.5825C42 11.872 33.9411 4 24 4C14.0589 4 6 11.872 6 21.5825C6 35.0267 20.9863 42.7577 23.6103 44.0083C23.862 44.1282 24.138 44.1282 24.3897 44.0083ZM23.9997 29.2645C28.2602 29.2645 31.714 25.8712 31.714 21.6853C31.714 17.4993 28.2602 14.106 23.9997 14.106C19.7392 14.106 16.2854 17.4993 16.2854 21.6853C16.2854 25.8712 19.7392 29.2645 23.9997 29.2645Z"/>
</mask>
<path fill-rule="evenodd" clip-rule="evenodd" d="M24.3897 44.0083C27.0137 42.7577 42 35.0267 42 21.5825C42 11.872 33.9411 4 24 4C14.0589 4 6 11.872 6 21.5825C6 35.0267 20.9863 42.7577 23.6103 44.0083C23.862 44.1282 24.138 44.1282 24.3897 44.0083ZM23.9997 29.2645C28.2602 29.2645 31.714 25.8712 31.714 21.6853C31.714 17.4993 28.2602 14.106 23.9997 14.106C19.7392 14.106 16.2854 17.4993 16.2854 21.6853C16.2854 25.8712 19.7392 29.2645 23.9997 29.2645Z" fill="#736035"/>
<path d="M24.3897 44.0083L24.8199 44.911L24.82 44.911L24.3897 44.0083ZM23.6103 44.0083L24.0405 43.1055L24.0405 43.1055L23.6103 44.0083ZM41 21.5825C41 27.9088 37.4753 32.9559 33.4998 36.6339C29.5308 40.3059 25.2299 42.5001 23.9595 43.1055L24.82 44.911C26.1736 44.2658 30.6778 41.9693 34.858 38.102C39.0315 34.2409 43 28.7004 43 21.5825H41ZM24 5C33.4111 5 41 12.4462 41 21.5825H43C43 11.2977 34.4712 3 24 3V5ZM7 21.5825C7 12.4462 14.5889 5 24 5V3C13.5288 3 5 11.2977 5 21.5825H7ZM24.0405 43.1055C22.7701 42.5001 18.4692 40.3059 14.5002 36.6339C10.5247 32.9559 7 27.9088 7 21.5825H5C5 28.7004 8.96849 34.2409 13.142 38.102C17.3222 41.9693 21.8264 44.2658 23.18 44.911L24.0405 43.1055ZM23.9595 43.1055C23.9635 43.1036 23.9781 43.0982 24 43.0982C24.0219 43.0982 24.0365 43.1036 24.0405 43.1055L23.18 44.911C23.7039 45.1606 24.2961 45.1606 24.8199 44.911L23.9595 43.1055ZM30.714 21.6853C30.714 25.3023 27.7246 28.2645 23.9997 28.2645V30.2645C28.7957 30.2645 32.714 26.44 32.714 21.6853H30.714ZM23.9997 15.106C27.7246 15.106 30.714 18.0682 30.714 21.6853H32.714C32.714 16.9305 28.7957 13.106 23.9997 13.106V15.106ZM17.2854 21.6853C17.2854 18.0682 20.2748 15.106 23.9997 15.106V13.106C19.2036 13.106 15.2854 16.9305 15.2854 21.6853H17.2854ZM23.9997 28.2645C20.2748 28.2645 17.2854 25.3023 17.2854 21.6853H15.2854C15.2854 26.44 19.2036 30.2645 23.9997 30.2645V28.2645Z" fill="white" mask="url(#path-1-outside-1_723_35626)"/>
</svg>
