<svg width="24" height="24" viewBox="0 0 24 24" xmlns="http://www.w3.org/2000/svg">
<path fill-rule="evenodd" clip-rule="evenodd" d="M8 12.5C7.72386 12.5 7.5 12.2761 7.5 12L7.5 8C7.5 5.51472 9.51472 3.5 12 3.5C14.4853 3.5 16.5 5.51472 16.5 8L16.5 12C16.5 12.2761 16.2761 12.5 16 12.5C15.7239 12.5 15.5 12.2761 15.5 12L15.5 8C15.5 6.067 13.933 4.5 12 4.5C10.067 4.5 8.5 6.067 8.5 8L8.5 12C8.5 12.2761 8.27614 12.5 8 12.5Z" />
<path fill-rule="evenodd" clip-rule="evenodd" d="M7.6464 8.5H16.3549C17.1988 8.49999 17.8808 8.49998 18.4216 8.57019C18.984 8.64322 19.4607 8.79916 19.8532 9.1603C20.2457 9.52143 20.4407 9.98358 20.5601 10.5379C20.675 11.071 20.7316 11.7506 20.8017 12.5916L21.3213 18.8269C21.3611 19.3041 21.3952 19.7132 21.3773 20.0417C21.3582 20.3925 21.2771 20.7337 21.0177 21.0157C20.7583 21.2976 20.425 21.4067 20.077 21.4549C19.7511 21.5001 19.3406 21.5 18.8617 21.5H5.13968C4.66073 21.5 4.25024 21.5001 3.92435 21.4549C3.57636 21.4067 3.24308 21.2976 2.98365 21.0157C2.72421 20.7337 2.64317 20.3925 2.62404 20.0417C2.60612 19.7132 2.64023 19.3041 2.68003 18.8268L3.19963 12.5916C3.2697 11.7506 3.32633 11.071 3.44121 10.5379C3.56069 9.98358 3.75568 9.52143 4.14816 9.1603C4.54064 8.79916 5.01739 8.64322 5.57976 8.57019C6.12049 8.49998 6.80251 8.49999 7.6464 8.5ZM5.70853 9.56187C5.25391 9.6209 5.00688 9.72908 4.82527 9.89618C4.64367 10.0633 4.51535 10.3005 4.41877 10.7486C4.31916 11.2108 4.26695 11.8254 4.19329 12.7093L3.67945 18.8754C3.636 19.3969 3.60886 19.7362 3.62255 19.9873C3.63546 20.224 3.68186 20.2976 3.71953 20.3386C3.7572 20.3795 3.82673 20.4318 4.06155 20.4644C4.31064 20.4989 4.65101 20.5 5.17427 20.5H18.8271C19.3503 20.5 19.6907 20.4989 19.9398 20.4644C20.1746 20.4318 20.2441 20.3795 20.2818 20.3386C20.3195 20.2976 20.3659 20.224 20.3788 19.9873C20.3925 19.7362 20.3653 19.3969 20.3219 18.8754L19.808 12.7093C19.7344 11.8254 19.6822 11.2108 19.5826 10.7486C19.486 10.3005 19.3577 10.0633 19.1761 9.89618C18.9945 9.72908 18.7474 9.6209 18.2928 9.56187C17.824 9.50099 17.2071 9.5 16.3201 9.5H7.6812C6.79424 9.5 6.17736 9.50099 5.70853 9.56187Z" />
</svg>
