<svg width="24" height="24" viewBox="0 0 24 24" xmlns="http://www.w3.org/2000/svg">
<path fill-rule="evenodd" clip-rule="evenodd" d="M12 7.5C10.6193 7.5 9.5 8.61929 9.5 10C9.5 11.3807 10.6193 12.5 12 12.5C13.3807 12.5 14.5 11.3807 14.5 10C14.5 8.61929 13.3807 7.5 12 7.5ZM8.5 10C8.5 8.067 10.067 6.5 12 6.5C13.933 6.5 15.5 8.067 15.5 10C15.5 11.933 13.933 13.5 12 13.5C10.067 13.5 8.5 11.933 8.5 10Z" />
<path fill-rule="evenodd" clip-rule="evenodd" d="M12 3.5C7.30558 3.5 3.5 7.30558 3.5 12C3.5 16.6944 7.30558 20.5 12 20.5C16.6944 20.5 20.5 16.6944 20.5 12C20.5 7.30558 16.6944 3.5 12 3.5ZM2.5 12C2.5 6.75329 6.75329 2.5 12 2.5C17.2467 2.5 21.5 6.75329 21.5 12C21.5 17.2467 17.2467 21.5 12 21.5C6.75329 21.5 2.5 17.2467 2.5 12Z" />
<path fill-rule="evenodd" clip-rule="evenodd" d="M7.95597 15.6078C9.12551 14.8855 10.5469 14.5 12.0001 14.5C13.4534 14.5 14.8748 14.8855 16.0443 15.6078C17.2143 16.3305 18.0785 17.3584 18.4745 18.548C18.5618 18.81 18.4201 19.0931 18.1581 19.1803C17.896 19.2675 17.6129 19.1258 17.5257 18.8638C17.2139 17.9271 16.5185 17.0761 15.5188 16.4586C14.5187 15.8409 13.2817 15.5 12.0001 15.5C10.7186 15.5 9.48159 15.8409 8.48147 16.4586C7.48178 17.0761 6.78636 17.9271 6.47454 18.8638C6.38732 19.1258 6.10422 19.2675 5.84221 19.1803C5.58021 19.0931 5.43851 18.81 5.52573 18.548C5.92173 17.3584 6.786 16.3305 7.95597 15.6078Z" />
</svg>
