<svg width="81" height="16" viewBox="0 0 81 16" fill="none" xmlns="http://www.w3.org/2000/svg">
<g clip-path="url(#clip0_1887_35744)">
<path d="M35.8869 10.3873V7.42931C35.8869 6.31516 35.1925 5.56584 34.0737 5.55595C33.755 5.53474 33.4365 5.60131 33.1515 5.74872C32.8666 5.89613 32.6255 6.11898 32.4534 6.39406C32.2966 6.12718 32.0723 5.90847 31.8041 5.76098C31.5359 5.61348 31.2338 5.54265 30.9295 5.55595C30.6643 5.54233 30.4002 5.59976 30.1634 5.72255C29.9266 5.84534 29.7252 6.02923 29.5793 6.25602V5.67428H28.5762V10.3873H29.5889V7.77437C29.5889 6.95603 30.0326 6.52229 30.7173 6.52229C31.3828 6.52229 31.7204 6.96592 31.7204 7.76457V10.3873H32.7331V7.77437C32.7331 6.95603 33.1961 6.52229 33.8615 6.52229C34.5463 6.52229 34.8742 6.96592 34.8742 7.76457V10.3873H35.8869ZM50.8749 5.67428H49.2353V4.24466H48.2226V5.67428H47.287V6.61097H48.2226V8.76037C48.2226 9.85485 48.6373 10.5056 49.8236 10.5056C50.2667 10.5069 50.7013 10.3805 51.0774 10.1408L50.7881 9.26323C50.5191 9.42727 50.2138 9.51887 49.9007 9.52947C49.3992 9.52947 49.2353 9.2139 49.2353 8.7407V6.61097H50.8749V5.67428ZM59.4298 5.55595C59.1852 5.54859 58.9432 5.60882 58.7294 5.73029C58.5155 5.85176 58.3376 6.02997 58.2146 6.24614V5.67428H57.2211V10.3873H58.2241V7.7448C58.2241 6.96591 58.5521 6.53207 59.208 6.53207C59.4225 6.52906 59.6356 6.56927 59.8349 6.65042L60.1435 5.68417C59.9144 5.60032 59.6731 5.55697 59.4298 5.55595V5.55595ZM46.4962 6.04899C45.9284 5.70384 45.2756 5.53271 44.6154 5.55595C43.4484 5.55595 42.6961 6.12781 42.6961 7.06448C42.6961 7.83358 43.2555 8.30686 44.2874 8.45477L44.7601 8.52377C45.3098 8.60259 45.5702 8.75048 45.5702 9.01675C45.5702 9.38156 45.2037 9.58861 44.519 9.58861C43.9681 9.60478 43.428 9.43115 42.9854 9.09563L42.5128 9.8942C43.0971 10.3114 43.7969 10.5257 44.5093 10.5056C45.8403 10.5056 46.6118 9.86464 46.6118 8.96742C46.6118 8.13918 46.0043 7.70536 45.0012 7.55746L44.5286 7.48844C44.0946 7.42931 43.7474 7.34063 43.7474 7.02513C43.7474 6.67999 44.0752 6.47295 44.6251 6.47295C45.1299 6.48072 45.6245 6.61985 46.0621 6.87722L46.4962 6.04899ZM73.3665 5.55595C73.1219 5.54858 72.8799 5.60881 72.6661 5.73028C72.4522 5.85175 72.2743 6.02997 72.1513 6.24614V5.67428H71.1578V10.3873H72.1609V7.7448C72.1609 6.96591 72.4888 6.53207 73.1446 6.53207C73.3592 6.52905 73.5722 6.56926 73.7716 6.65042L74.0802 5.68417C73.8511 5.60032 73.6098 5.55697 73.3665 5.55595V5.55595ZM60.4424 8.03073C60.4424 9.46046 61.4166 10.5056 62.902 10.5056C63.5041 10.5365 64.0958 10.336 64.5608 9.94353L64.0786 9.11531C63.7318 9.38555 63.309 9.53423 62.8729 9.53925C62.0725 9.52947 61.4841 8.93785 61.4841 8.03073C61.4841 7.1237 62.0725 6.53207 62.8729 6.52229C63.309 6.52731 63.7318 6.67599 64.0786 6.94623L64.5608 6.11801C64.0958 5.72553 63.5041 5.52504 62.902 5.55595C61.4166 5.55595 60.4424 6.60109 60.4424 8.03073ZM69.8365 8.03073V5.67428H68.8335V6.24614C68.6622 6.02059 68.4407 5.84023 68.1873 5.72016C67.9339 5.60008 67.6561 5.54378 67.377 5.55595C66.0847 5.55595 65.072 6.59131 65.072 8.03073C65.072 9.47026 66.0847 10.5056 67.377 10.5056C67.6561 10.5178 67.9339 10.4615 68.1873 10.3414C68.4407 10.2213 68.6622 10.041 68.8335 9.8154V10.3873H69.8365V8.03073ZM66.1039 8.03073C66.1039 7.20252 66.6344 6.52229 67.5025 6.52229C68.3319 6.52229 68.8913 7.17295 68.8913 8.03073C68.8913 8.88852 68.3319 9.53925 67.5025 9.53925C66.6344 9.53925 66.1039 8.85895 66.1039 8.03073ZM53.9998 5.55595C52.6495 5.55595 51.7044 6.56164 51.7044 8.03073C51.7044 9.52948 52.6881 10.5056 54.0673 10.5056C54.7554 10.5303 55.4284 10.2951 55.9577 9.84497L55.4658 9.08575C55.0849 9.3978 54.6132 9.57125 54.1251 9.57872C53.4789 9.57872 52.8906 9.27311 52.7459 8.42511H56.1699C56.1795 8.29698 56.1891 8.16885 56.1891 8.03073C56.1795 6.56164 55.2922 5.55595 53.9998 5.55595ZM53.9805 6.47295C54.6267 6.47295 55.0414 6.88701 55.1475 7.61667H52.7556C52.8617 6.93635 53.2667 6.47295 53.9805 6.47295ZM79.1437 8.03073V3.78125H78.1406V6.24614C77.9694 6.0206 77.7478 5.84025 77.4945 5.72017C77.2411 5.60009 76.9633 5.54378 76.6843 5.55595C75.3918 5.55595 74.3792 6.59131 74.3792 8.03073C74.3792 9.47026 75.3918 10.5056 76.6843 10.5056C76.9633 10.5178 77.2411 10.4615 77.4945 10.3414C77.7478 10.2213 77.9694 10.0409 78.1406 9.8154V10.3873H79.1437V8.03073ZM80.3159 9.95235C80.3557 9.95208 80.3951 9.96005 80.4318 9.9758C80.467 9.99086 80.4992 10.0126 80.5265 10.0399C80.5535 10.0672 80.5752 10.0996 80.5902 10.1353C80.6056 10.1719 80.6136 10.2114 80.6136 10.2513C80.6136 10.2912 80.6056 10.3306 80.5902 10.3673C80.5751 10.4028 80.5535 10.435 80.5265 10.4622C80.4991 10.4895 80.467 10.5114 80.4318 10.5267C80.3952 10.5427 80.3558 10.5508 80.3159 10.5505C80.2573 10.5512 80.1999 10.5341 80.1507 10.5015C80.1015 10.4689 80.0629 10.4222 80.0395 10.3673C80.0242 10.3306 80.0162 10.2912 80.0162 10.2513C80.0162 10.2114 80.0242 10.1719 80.0395 10.1353C80.0698 10.0629 80.1267 10.0056 80.198 9.9758C80.2354 9.96001 80.2755 9.95203 80.3159 9.95235V9.95235ZM80.3159 10.4846C80.3463 10.4848 80.3763 10.4786 80.4042 10.4663C80.4309 10.4544 80.4552 10.4374 80.4759 10.4164C80.5184 10.3725 80.5422 10.3132 80.5422 10.2514C80.5422 10.1896 80.5184 10.1304 80.4759 10.0865C80.4553 10.0654 80.431 10.0487 80.4042 10.037C80.3763 10.0249 80.3463 10.0188 80.3159 10.019C80.2851 10.0188 80.2545 10.0249 80.2259 10.037C80.1916 10.052 80.1614 10.0753 80.1379 10.1049C80.1144 10.1345 80.0984 10.1696 80.0912 10.207C80.084 10.2444 80.0859 10.2831 80.0967 10.3196C80.1075 10.3561 80.1269 10.3893 80.1532 10.4164C80.1741 10.4376 80.1988 10.4545 80.2259 10.4663C80.2544 10.4785 80.285 10.4848 80.3159 10.4846V10.4846ZM80.3332 10.1114C80.362 10.1095 80.3905 10.1179 80.4139 10.1353C80.4232 10.1431 80.4306 10.153 80.4355 10.1643C80.4404 10.1755 80.4427 10.1878 80.4422 10.2001C80.4425 10.2107 80.4407 10.2212 80.4368 10.231C80.4329 10.2407 80.427 10.2496 80.4196 10.2569C80.4018 10.2731 80.3792 10.2827 80.3554 10.2844L80.4443 10.3892H80.3748L80.2923 10.2851H80.2657V10.3892H80.2077V10.1114H80.3332ZM80.2657 10.1635V10.2375H80.3325C80.3453 10.2382 80.358 10.235 80.3691 10.2283C80.3735 10.2253 80.3772 10.221 80.3796 10.2161C80.3819 10.2111 80.383 10.2056 80.3827 10.2001C80.3829 10.1947 80.3818 10.1893 80.3795 10.1845C80.3771 10.1797 80.3735 10.1756 80.3691 10.1726C80.358 10.166 80.3453 10.1628 80.3325 10.1635H80.2657ZM75.4112 8.03073C75.4112 7.20252 75.9417 6.52229 76.8096 6.52229C77.639 6.52229 78.1984 7.17295 78.1984 8.03073C78.1984 8.88852 77.639 9.53925 76.8096 9.53925C75.9417 9.53925 75.4112 8.85895 75.4112 8.03073ZM41.5387 8.03073V5.67428H40.5357V6.24614C40.3644 6.02059 40.1429 5.84023 39.8895 5.72015C39.6361 5.60007 39.3583 5.54377 39.0793 5.55595C37.7869 5.55595 36.7742 6.59131 36.7742 8.03073C36.7742 9.47026 37.7869 10.5056 39.0793 10.5056C39.3583 10.5178 39.6361 10.4615 39.8895 10.3414C40.1429 10.2213 40.3644 10.041 40.5357 9.8154V10.3873H41.5387V8.03073ZM37.8062 8.03073C37.8062 7.20252 38.3367 6.52229 39.2047 6.52229C40.0341 6.52229 40.5935 7.17295 40.5935 8.03073C40.5935 8.88852 40.0341 9.53925 39.2047 9.53925C38.3367 9.53925 37.8062 8.85895 37.8062 8.03073V8.03073Z" fill="black"/>
<path d="M15.7805 2.42847H9.71484V13.5716H15.7805V2.42847Z" fill="#FF5F00"/>
<path d="M10.0996 8.00028C10.0987 6.92712 10.3366 5.8678 10.7953 4.90251C11.254 3.93723 11.9215 3.09128 12.7473 2.42872C11.7247 1.60698 10.4965 1.09595 9.20323 0.954048C7.90992 0.812142 6.60365 1.04508 5.43372 1.62624C4.26379 2.2074 3.2774 3.11333 2.58731 4.24049C1.89721 5.36765 1.53125 6.67055 1.53125 8.00028C1.53125 9.33001 1.89721 10.6329 2.58731 11.7601C3.2774 12.8872 4.26379 13.7932 5.43372 14.3743C6.60365 14.9555 7.90992 15.1884 9.20323 15.0465C10.4965 14.9046 11.7247 14.3936 12.7473 13.5719C11.9215 12.9093 11.254 12.0633 10.7953 11.0981C10.3366 10.1328 10.0987 9.07345 10.0996 8.00028V8.00028Z" fill="#EB001B"/>
<path d="M23.9638 8.00029C23.9638 9.33 23.5979 10.6329 22.9079 11.7601C22.2178 12.8872 21.2315 13.7932 20.0615 14.3743C18.8916 14.9555 17.5854 15.1884 16.2921 15.0465C14.9988 14.9046 13.7707 14.3936 12.748 13.5719C13.5731 12.9086 14.2401 12.0625 14.6988 11.0974C15.1574 10.1323 15.3957 9.07328 15.3957 8.00029C15.3957 6.92729 15.1574 5.8683 14.6988 4.90317C14.2401 3.93804 13.5731 3.09195 12.748 2.42872C13.7707 1.60698 14.9988 1.09595 16.2921 0.954047C17.5854 0.812142 18.8916 1.04509 20.0615 1.62625C21.2315 2.20742 22.2178 3.11336 22.9079 4.24052C23.5979 5.36768 23.9638 6.67058 23.9638 8.00029V8.00029Z" fill="#F79E1B"/>
<path d="M23.2993 12.3913V12.1631H23.3893V12.1167H23.1602V12.1631H23.2502V12.3913H23.2993ZM23.7442 12.3913V12.1162H23.674L23.5932 12.3054L23.5124 12.1162H23.4421V12.3913H23.4917V12.1838L23.5675 12.3627H23.6189L23.6947 12.1833V12.3913H23.7442Z" fill="#F79E1B"/>
</g>
<defs>
<clipPath id="clip0_1887_35744">
<rect width="80" height="16" fill="white" transform="translate(0.808594)"/>
</clipPath>
</defs>
</svg>
