<svg width="33" height="20" viewBox="0 0 33 20" fill="none" xmlns="http://www.w3.org/2000/svg">
<path d="M7.11656 0H15.092C16.1963 0 16.8712 0.920245 16.6258 2.02454L12.8834 17.9755C12.638 19.0798 11.5338 20 10.3681 20H2.39265C1.28835 20 0.613505 19.0798 0.858904 17.9755L4.60122 2.02454C4.84662 0.920245 5.95092 0 7.11656 0Z" fill="#D01F38"/>
<path d="M14.4185 0H23.6209C24.7252 0 24.2344 0.920245 23.989 2.02454L20.2467 17.9755C20.0013 19.0798 20.0627 20 18.9584 20H9.75593C8.65163 20 7.97679 19.0798 8.22218 17.9755L11.9645 2.02454C12.2099 0.920245 13.3142 0 14.4185 0Z" fill="#162E50"/>
<path d="M23.2515 0H31.2269C32.3312 0 33.0674 0.920245 32.7607 2.02454L29.0184 17.9755C28.773 19.0798 27.6687 20 26.503 20H18.5276C17.4233 20 16.6871 19.0798 16.9938 17.9755L20.7361 2.02454C20.9815 0.920245 22.1472 0 23.2515 0Z" fill="#007B7E"/>
<path fill-rule="evenodd" clip-rule="evenodd" d="M24.5385 11.7791L23.5569 14.9693H23.8023L23.6183 15.6441H23.3729L23.3115 15.8282H22.3913L22.4526 15.6441H20.5508L20.7348 15.0306H20.9189L21.9005 11.7791L22.0845 11.1042H23.0048L22.8821 11.411C22.8821 11.411 23.1275 11.2269 23.3729 11.1656C23.6183 11.1042 24.968 11.1042 24.968 11.1042L24.7839 11.7791H24.5385V11.7791ZM22.8821 11.7791L22.6367 12.5766C22.6367 12.5766 22.9434 12.4539 23.0661 12.3926C23.2502 12.3312 23.4342 12.3312 23.4342 12.3312L23.6183 11.7177L22.8821 11.7791ZM22.514 13.0061L22.2686 13.865C22.2686 13.865 22.5753 13.7423 22.698 13.6809C22.8821 13.6196 23.0661 13.6196 23.0661 13.6196L23.2502 13.0061C23.2502 13.0061 22.514 13.0061 22.514 13.0061ZM21.9005 15.0306H22.6367L22.8821 14.2944H22.1459L21.9005 15.0306Z" fill="white"/>
<path d="M24.9684 11.1042H25.95V11.4723C25.95 11.5337 26.0114 11.595 26.1341 11.595H26.3181L26.1341 12.2085H25.5819C25.0911 12.2699 24.9071 12.0245 24.9684 11.8404V11.1042V11.1042Z" fill="white"/>
<path d="M25.0915 14.049H24.1099L24.294 13.4969H25.3983L25.5823 13.0061H24.4781L24.6621 12.3926H27.6682L27.4842 13.0061H26.5026L26.3185 13.4969H27.3615L27.1774 14.049H26.0731L25.8891 14.2944H26.3185L26.4412 14.9693C26.4412 15.0306 26.4412 15.092 26.5026 15.092C26.5026 15.092 26.6866 15.1533 26.748 15.1533H26.8707L26.6866 15.8282H26.3185C26.2572 15.8282 26.1958 15.8282 26.0731 15.8282C25.9504 15.8282 25.8891 15.7668 25.8277 15.7055C25.7664 15.6441 25.6437 15.5828 25.6437 15.4601L25.521 14.7852L25.0302 15.4601C24.8461 15.7055 24.6621 15.8282 24.294 15.8282H23.6191L23.8032 15.2147H24.0486C24.1099 15.2147 24.1713 15.2147 24.2326 15.1533C24.294 15.1533 24.3553 15.092 24.3553 15.0306L25.0915 14.049Z" fill="white"/>
<path d="M14.5404 12.5767H17.0558L16.8717 13.1902H15.8288L15.6447 13.681H16.6877L16.5036 14.2945H15.4607L15.2153 15.1533C15.2153 15.276 15.4607 15.276 15.5834 15.276L16.0742 15.2147L15.8901 15.8895H14.7245C14.6018 15.8895 14.5404 15.8895 14.4791 15.8282C14.3564 15.8282 14.3564 15.7668 14.295 15.7055C14.2337 15.6441 14.1723 15.5828 14.2337 15.4601L14.5404 14.3558H13.9883L14.1723 13.7423H14.7245L14.9085 13.2515H14.3564L14.5404 12.5767Z" fill="white"/>
<path d="M16.2585 11.4724H17.3014L17.1174 12.0859H15.7063L15.5223 12.2086C15.4609 12.27 15.4609 12.27 15.3382 12.27C15.2769 12.3313 15.0928 12.3927 14.8474 12.3927H14.418L14.602 11.7792H14.7247C14.8474 11.7792 14.9088 11.7792 14.9701 11.7178C15.0315 11.7178 15.0928 11.5951 15.1542 11.5338L15.3996 11.043H16.4425L16.2585 11.4724Z" fill="white"/>
<path fill-rule="evenodd" clip-rule="evenodd" d="M17.7911 11.1042H18.65L18.5273 11.5337C18.5273 11.5337 18.834 11.2883 19.0181 11.2269C19.2021 11.1656 19.6316 11.1042 19.6316 11.1042H21.0426L20.5518 12.7607C20.4905 13.0674 20.3678 13.1901 20.3064 13.3128C20.2451 13.3742 20.1837 13.4969 20.061 13.5582C19.9383 13.6196 19.8156 13.6809 19.7543 13.6809C19.6316 13.6809 19.5089 13.6809 19.3248 13.6809H17.9138L17.5457 14.9693C17.4843 15.092 17.4843 15.1533 17.5457 15.2147C17.5457 15.276 17.6071 15.276 17.6684 15.276L18.2819 15.2147L18.0978 15.9509H17.423C17.1776 15.9509 17.0549 15.9509 16.9322 15.9509C16.8095 15.9509 16.6868 15.9509 16.6254 15.8895C16.5641 15.8282 16.4414 15.7668 16.4414 15.7055C16.4414 15.6441 16.5028 15.5214 16.5028 15.3374L17.7911 11.1042ZM19.6316 12.7607H18.1592L18.0978 13.0674H19.3862C19.5089 13.0674 19.5702 13.0674 19.5702 13.0674L19.6316 12.7607ZM18.2819 12.5153C18.2819 12.5153 18.5886 12.2699 19.0794 12.1472C19.2021 12.1472 19.877 12.1472 19.877 12.1472L19.9997 11.7791H18.5273L18.2819 12.5153Z" fill="white"/>
<path d="M20.3671 13.7422L20.3058 14.1103C20.2444 14.233 20.2444 14.3557 20.1217 14.417C19.999 14.4784 19.9377 14.6011 19.6309 14.6011H19.1401V15.0305C19.1401 15.1532 19.1401 15.1532 19.2015 15.1532L19.2628 15.2146H19.4469H19.9377L19.7536 15.8894H19.1401C18.772 15.8894 18.4653 15.8894 18.4039 15.8281C18.3426 15.7667 18.2812 15.7054 18.2812 15.5827L18.3426 13.8649H19.2015V14.233H19.3855C19.4469 14.233 19.5082 14.233 19.5082 14.233L19.5696 14.1716L19.6309 13.9262H20.3671V13.7422V13.7422Z" fill="white"/>
<path d="M8.03726 5.09211C8.03726 5.21481 7.42376 7.7915 7.42376 7.7915C7.30106 8.2823 7.23972 8.65039 6.93297 8.89579C6.74892 9.01849 6.56487 9.07984 6.31947 9.07984C5.95137 9.07984 5.76733 8.89579 5.70598 8.52769V8.405L5.82866 7.73015C5.82866 7.73015 6.38082 5.39886 6.50351 5.09211C6.50351 5.09211 6.50351 5.09211 6.50351 5.03076C5.39922 5.03076 5.15383 5.03076 5.15383 5.03076L5.09248 5.21481L4.47898 7.85285L4.41763 8.09825L4.29492 8.83444C4.29492 9.07984 4.35628 9.20254 4.41763 9.38659C4.66303 9.87739 5.46057 9.93874 5.89002 9.93874C6.44216 9.93874 6.99431 9.81604 7.36241 9.63199C7.9759 9.26389 8.15995 8.71174 8.28265 8.1596L8.34401 7.9142C8.34401 7.9142 8.95751 5.52156 9.01886 5.15346C9.01886 5.15346 9.01886 5.15346 9.01886 5.09211C8.34401 5.09211 8.09861 5.09211 8.03726 5.09211Z" fill="white"/>
<path d="M11.349 9.8774C10.9195 9.8774 10.7968 9.8774 10.3674 9.8774V9.81605C10.4287 9.632 10.4287 9.44795 10.4901 9.26391L10.5514 9.01851C10.6128 8.65041 10.7355 8.22096 10.7355 8.03691C10.7355 7.97556 10.7968 7.73016 10.5514 7.73016C10.4287 7.73016 10.3674 7.79151 10.2447 7.85286C10.1833 8.03691 10.0606 8.65041 9.99928 8.89581C9.87659 9.44796 9.87657 9.5093 9.81522 9.7547L9.75389 9.81605C9.32444 9.81605 9.20174 9.81605 8.71094 9.81605V9.7547C8.77229 9.44795 8.89498 9.07986 8.95633 8.77311C9.14038 7.91421 9.20173 7.54611 9.26308 7.11667H9.32443C9.81523 7.05532 9.87657 7.05532 10.4287 6.93262L10.4901 6.99397L10.4287 7.30071C10.4901 7.23936 10.6128 7.17802 10.6741 7.17802C10.9195 7.05532 11.1649 7.05532 11.349 7.05532C11.5944 7.05532 11.7784 7.11667 11.9011 7.36207C12.0238 7.60746 11.9625 7.85286 11.7784 8.40501L11.7171 8.71176C11.4717 9.32526 11.4717 9.44795 11.349 9.8774Z" fill="white"/>
<path d="M13.0066 9.87729C12.7612 9.87729 12.6385 9.87729 12.4545 9.87729C12.3318 9.87729 12.1477 9.87729 11.9023 9.87729C11.9637 9.63189 12.025 9.57054 12.025 9.50919C12.025 9.44784 12.0864 9.32514 12.1477 9.07974C12.2091 8.773 12.2704 8.5276 12.2704 8.34355C12.3318 8.1595 12.3318 8.0368 12.3318 7.85275C12.5772 7.7914 12.6999 7.7914 12.8839 7.7914C13.068 7.7914 13.1907 7.73005 13.4361 7.6687C13.3747 7.85275 13.3134 8.0368 13.3134 8.22085C13.252 8.4049 13.252 8.58895 13.1907 8.773C13.1293 9.20244 13.068 9.32514 13.068 9.44784C13.068 9.57054 13.068 9.63189 13.0066 9.87729Z" fill="white"/>
<path d="M16.5652 8.52757C16.6879 7.91407 16.6266 7.60732 16.4426 7.42327C16.2585 7.17787 15.8904 7.05518 15.461 7.05518C15.2156 7.05518 14.6634 7.05518 14.234 7.48462C13.9272 7.79137 13.8045 8.15947 13.6818 8.52757C13.6205 8.89567 13.4978 9.57051 14.1113 9.81591C14.2953 9.87726 14.6021 9.93861 14.7861 9.93861C15.2156 9.93861 15.7064 9.81591 16.0745 9.44781C16.4426 9.14106 16.5652 8.71162 16.5652 8.52757ZM15.5223 8.46622C15.5223 8.58892 15.3996 8.95701 15.2769 9.14106C15.2156 9.26376 15.0929 9.32511 14.9702 9.32511C14.9088 9.32511 14.7248 9.32511 14.7248 9.01837C14.7248 8.89567 14.7248 8.71162 14.7861 8.58892C14.9088 8.09812 15.0315 7.73002 15.3383 7.73002C15.645 7.73002 15.645 7.97542 15.5223 8.46622Z" fill="white"/>
<path d="M26.4414 9.93861C25.9506 9.93861 25.8279 9.93861 25.3984 9.93861V9.87726C25.5211 9.38646 25.6438 8.95702 25.7665 8.46622C25.8892 7.85272 25.9506 7.60732 26.0119 7.23922H26.0733C26.5641 7.17787 26.6868 7.17788 27.1776 7.05518V7.11652C27.1162 7.48462 26.9935 7.85272 26.9322 8.28217C26.5641 9.07972 26.5027 9.50916 26.4414 9.93861Z" fill="white"/>
<path d="M26.625 8.58891C26.7477 7.97541 26.1955 8.52756 26.1342 8.34351C26.0115 8.03676 26.0729 7.36191 25.5207 7.17786C25.2753 7.11651 24.7845 7.17786 24.3551 7.60731C24.0483 7.91406 23.9256 8.28216 23.8029 8.65026C23.7416 9.01835 23.6189 9.6932 24.2324 9.9386C24.4164 9.99995 24.6005 10.0613 24.7845 10.0613C25.398 9.99995 25.8888 9.0797 26.2569 8.71161C26.5637 8.34351 26.625 8.77296 26.625 8.58891ZM25.7048 8.52756C25.7048 8.65025 25.582 9.01835 25.4593 9.2024C25.398 9.3251 25.1526 9.38645 25.0913 9.38645C25.0299 9.38645 24.8459 9.38645 24.8459 9.0797C24.8459 8.957 24.8459 8.77295 24.9072 8.65026C25.0299 8.22081 25.1526 7.79136 25.4593 7.79136C25.7047 7.79136 25.7661 8.03676 25.7048 8.52756Z" fill="white"/>
<path d="M19.3244 9.8774C18.8949 9.8774 18.7722 9.8774 18.2814 9.8774V9.81605C18.3428 9.632 18.3428 9.44795 18.4041 9.26391L18.4655 9.01851C18.5268 8.65041 18.6496 8.22096 18.6496 8.03691C18.6496 7.97556 18.7109 7.73016 18.4655 7.73016C18.3428 7.73016 18.2814 7.79151 18.1587 7.85286C18.0974 8.03691 17.9747 8.65041 17.9133 8.89581C17.7906 9.44796 17.7907 9.5093 17.7293 9.7547L17.668 9.81605C17.2385 9.81605 17.1158 9.81605 16.625 9.81605V9.7547C16.6863 9.44795 16.809 9.07986 16.8704 8.77311C17.0544 7.91421 17.1158 7.54611 17.1771 7.11667H17.2385C17.7293 7.05532 17.7907 7.05532 18.3428 6.93262L18.4041 6.99397L18.3428 7.30071C18.4042 7.23936 18.5268 7.17802 18.5882 7.17802C18.8336 7.05532 19.079 7.05532 19.2017 7.05532C19.4471 7.05532 19.6925 7.11667 19.7538 7.36207C19.8765 7.60746 19.7538 7.85286 19.6311 8.40501L19.5698 8.71176C19.4471 9.32526 19.4471 9.44795 19.3244 9.8774Z" fill="white"/>
<path d="M23.2515 6.56443C23.1902 6.87118 22.9448 7.17793 22.6994 7.30063C22.454 7.42333 22.2086 7.42333 21.9018 7.42333H21.7178V7.36198L22.0246 5.95094V5.88959V5.82824H22.1472L22.8221 5.88959C23.1902 5.95094 23.3129 6.25769 23.2515 6.56443ZM22.8221 5.09204H22.5153C21.6564 5.09204 21.2883 5.09204 21.1656 5.09204C21.1656 5.15339 21.1043 5.27609 21.1043 5.27609L20.7976 6.68713C20.7976 6.68713 20.0613 9.75462 20 9.87732C20.7362 9.87732 21.0429 9.87732 21.227 9.87732C21.227 9.75462 21.4111 8.89572 21.4111 8.89572C21.4111 8.89572 21.5337 8.28222 21.5951 8.22087C21.5951 8.22087 21.6565 8.15953 21.7178 8.15953H21.7791C22.454 8.15953 23.1902 8.15953 23.7423 7.73008C24.1104 7.42333 24.4172 6.99388 24.5399 6.50308C24.6012 6.38038 24.6012 6.19634 24.6012 6.07364C24.6012 5.88959 24.5399 5.70554 24.4172 5.52149C24.1104 5.09204 23.4969 5.09204 22.8221 5.09204Z" fill="white"/>
<path d="M30.3684 7.11652C29.8162 7.17787 29.7549 7.17787 29.2641 7.23922L29.2027 7.30057C28.8346 8.09812 28.896 7.91407 28.5892 8.52757V8.46622L28.5279 7.11652L28.4665 7.05518C27.9758 7.17788 27.9144 7.17787 27.4849 7.23922L27.4236 7.30057V7.36192C27.4849 7.66867 27.485 7.60732 27.5463 8.09812C27.5463 8.34352 27.6076 8.58892 27.6076 8.83432C27.669 9.20241 27.669 9.44781 27.7303 9.99996C27.4236 10.5521 27.3009 10.7362 26.9941 11.227V11.2883C27.4849 11.2883 27.5463 11.2883 27.9144 11.2883L27.9757 11.227C28.4052 10.5521 30.3684 7.11652 30.3684 7.11652Z" fill="white"/>
<path d="M13.4358 7.42327C13.6812 7.23922 13.7426 6.99382 13.4972 6.87112C13.2518 6.74842 12.8837 6.74842 12.5769 6.99382C12.3315 7.17787 12.2702 7.42327 12.5156 7.54597C12.761 7.66867 13.1904 7.60732 13.4358 7.42327Z" fill="white"/>
<path d="M28.0987 11.1655L27.7306 11.8404C27.6079 12.0858 27.3625 12.2085 26.9944 12.2698H26.3809L26.5649 11.6563H26.6876C26.749 11.6563 26.8103 11.6563 26.8103 11.6563L26.8717 11.595L27.1171 11.2269H28.0987V11.1655Z" fill="white"/>
</svg>
