<svg width="43" height="14" viewBox="0 0 43 14" fill="none" xmlns="http://www.w3.org/2000/svg">
<g clip-path="url(#clip0_1887_35743)">
<path d="M22.1405 4.50609C22.1148 6.43237 23.8528 7.50731 25.1541 8.14368C26.4983 8.79724 26.9435 9.21862 26.9435 9.80338C26.9349 10.6977 25.8733 11.0933 24.8802 11.1105C23.1507 11.1363 22.1405 10.6375 21.3442 10.2678L20.7192 13.2002C21.524 13.57 23.0052 13.8967 24.5463 13.9139C28.1678 13.9139 30.5308 12.1166 30.5479 9.33901C30.565 5.81321 25.6849 5.61542 25.7192 4.03311C25.7277 3.55154 26.1815 3.04417 27.1832 2.91518C27.6798 2.84638 29.0411 2.80338 30.5821 3.51714L31.19 0.679304C30.351 0.378321 29.2808 0.0859375 27.9537 0.0859375C24.5548 0.0859375 22.1576 1.90043 22.1405 4.50609ZM37.0033 0.326724C36.3441 0.326724 35.7876 0.713702 35.5393 1.30707L30.3681 13.699H33.9811L34.7002 11.7039H39.118L39.5375 13.699H42.7224L39.9399 0.326724H37.0033ZM37.5084 3.94712L38.5529 8.96923H35.6934L37.5084 3.94712ZM17.757 0.326724L14.906 13.7076H18.3477L21.1987 0.326724H17.757ZM12.6543 0.326724L9.06699 9.4336L7.62009 1.69405C7.44886 0.834095 6.78106 0.326724 6.02765 0.326724H0.171553L0.0859375 0.722301C1.29311 0.988886 2.6544 1.41026 3.48487 1.85744C3.99 2.13262 4.13554 2.37341 4.30678 3.03557L7.05503 13.7076H10.6937L16.2758 0.326724H12.6543Z" fill="url(#paint0_linear_1887_35743)"/>
</g>
<defs>
<linearGradient id="paint0_linear_1887_35743" x1="0.0859546" y1="7.00062" x2="42.7224" y2="7.00062" gradientUnits="userSpaceOnUse">
<stop stop-color="#222357"/>
<stop offset="1" stop-color="#254AA5"/>
</linearGradient>
<clipPath id="clip0_1887_35743">
<rect width="42.8077" height="14" fill="white"/>
</clipPath>
</defs>
</svg>
