<?xml version="1.0" encoding="UTF-8"?>
<!DOCTYPE svg PUBLIC "-//W3C//DTD SVG 1.1//EN" "http://www.w3.org/Graphics/SVG/1.1/DTD/svg11.dtd">
<svg xmlns="http://www.w3.org/2000/svg" xmlns:xlink="http://www.w3.org/1999/xlink">
<symbol id="arrow-down" viewBox="0 0 24 24">
	<path fill-rule="evenodd" d="m13.06 14.647 5.293-5.293-.707-.707-5.293 5.293.354.353-.354-.353a.5.5 0 0 1-.707 0l-.353.353.353-.353-5.292-5.293-.708.707 5.293 5.293a1.5 1.5 0 0 0 2.122 0Z" clip-rule="evenodd"/>
</symbol>
<symbol id="arrow-left" viewBox="0 0 24 24">
	<path d="m9.707 11.293.354.353-.354-.353Zm0 1.414.354-.353-.354.353Zm4.94-7.06-5.293 5.292.707.707 5.293-5.292-.708-.708ZM9.353 13.06l5.292 5.293.708-.708-5.293-5.292-.707.707Zm0-2.122a1.5 1.5 0 0 0 0 2.122l.707-.707a.5.5 0 0 1 0-.708l-.707-.707Z"/>
</symbol>
<symbol id="arrow-right" viewBox="0 0 24 24">
	<path fill-rule="evenodd" d="M14.647 10.94 9.354 5.645l-.707.708 5.293 5.292.353-.353-.353.354a.5.5 0 0 1 0 .707l.353.353-.353-.353-5.293 5.293.707.707 5.293-5.293a1.5 1.5 0 0 0 0-2.122Z" clip-rule="evenodd"/>
</symbol>
<symbol id="calenader" viewBox="0 0 24 24">
	<path fill-rule="evenodd" d="M6.963 5.5h10.074c.911 0 1.646 0 2.224.078.6.08 1.105.253 1.507.654.401.402.574.907.654 1.507.078.578.078 1.313.078 2.224v7.074c0 .911 0 1.646-.078 2.224-.08.6-.253 1.105-.654 1.507-.402.401-.907.574-1.507.654-.578.078-1.313.078-2.224.078H6.963c-.911 0-1.646 0-2.224-.078-.6-.08-1.105-.253-1.507-.654-.401-.402-.574-.907-.654-1.507-.078-.578-.078-1.313-.078-2.224V9.963c0-.911 0-1.646.078-2.224.08-.6.253-1.105.654-1.507.402-.401.907-.574 1.507-.654C5.317 5.5 6.052 5.5 6.963 5.5Zm-2.09 1.069c-.49.066-.75.186-.934.37-.184.185-.304.444-.37.933C3.5 8.376 3.5 9.043 3.5 10v7c0 .957.001 1.624.069 2.128.066.49.186.748.37.933.185.184.444.305.933.37.504.068 1.171.069 2.128.069h10c.957 0 1.624-.001 2.128-.069.49-.066.748-.186.933-.37.184-.185.305-.444.37-.933.068-.504.069-1.171.069-2.128v-7c0-.957-.001-1.624-.069-2.128-.066-.49-.186-.748-.37-.933-.185-.184-.444-.304-.933-.37C18.624 6.5 17.957 6.5 17 6.5H7c-.957 0-1.624.001-2.128.069Z" clip-rule="evenodd"/>
	<path d="M3 10c0-1.886 0-2.828.586-3.414C4.172 6 5.114 6 7 6h10c1.886 0 2.828 0 3.414.586C21 7.172 21 8.114 21 10H3Z"/>
	<path fill-rule="evenodd" d="M6.963 5.5h10.074c.911 0 1.646 0 2.224.078.6.08 1.105.253 1.507.654.401.402.574.907.654 1.507.078.578.078 1.313.078 2.224V10H21v.5H3V10h-.5v-.037c0-.911 0-1.646.078-2.224.08-.6.253-1.105.654-1.507.402-.401.907-.574 1.507-.654C5.317 5.5 6.052 5.5 6.963 5.5Zm-3.462 4H20.5c-.003-.697-.014-1.217-.069-1.628-.066-.49-.186-.748-.37-.933-.185-.184-.444-.304-.933-.37C18.624 6.5 17.957 6.5 17 6.5H7c-.957 0-1.624.001-2.128.069-.49.066-.748.186-.933.37-.184.185-.304.444-.37.933-.055.41-.066.93-.068 1.628Z" clip-rule="evenodd"/>
	<path fill-rule="evenodd" d="M7 2.5a.5.5 0 0 1 .5.5v3a.5.5 0 0 1-1 0V3a.5.5 0 0 1 .5-.5ZM17 2.5a.5.5 0 0 1 .5.5v3a.5.5 0 0 1-1 0V3a.5.5 0 0 1 .5-.5Z" clip-rule="evenodd"/>
</symbol>
<symbol id="cart" viewBox="0 0 24 24">
	<path fill-rule="evenodd" d="M8 12.5a.5.5 0 0 1-.5-.5V8a4.5 4.5 0 0 1 9 0v4a.5.5 0 0 1-1 0V8a3.5 3.5 0 1 0-7 0v4a.5.5 0 0 1-.5.5Z" clip-rule="evenodd"/>
	<path fill-rule="evenodd" d="M7.646 8.5h8.709c.844 0 1.526 0 2.067.07.562.073 1.039.23 1.431.59.393.361.588.824.707 1.378.115.533.172 1.213.242 2.054l.52 6.235c.04.477.073.886.055 1.215-.019.35-.1.692-.36.974-.259.282-.592.39-.94.439-.326.045-.736.045-1.215.045H5.14c-.48 0-.89 0-1.216-.045-.348-.048-.68-.157-.94-.44-.26-.281-.34-.623-.36-.973-.018-.329.016-.738.056-1.215l.52-6.235c.07-.841.126-1.521.241-2.054.12-.554.315-1.017.707-1.378.393-.36.87-.517 1.432-.59.54-.07 1.223-.07 2.066-.07ZM5.71 9.562c-.455.059-.702.167-.884.334-.181.167-.31.404-.406.853-.1.462-.152 1.076-.226 1.96l-.514 6.166c-.043.522-.07.861-.056 1.112.012.237.059.31.097.352.037.04.107.093.342.125.249.035.589.036 1.112.036h13.653c.523 0 .864-.001 1.113-.036.235-.032.304-.084.342-.125.038-.041.084-.115.097-.352.013-.25-.014-.59-.057-1.112l-.514-6.166c-.074-.884-.126-1.498-.225-1.96-.097-.449-.225-.686-.407-.853-.181-.167-.429-.275-.883-.334-.469-.061-1.086-.062-1.973-.062H7.681c-.887 0-1.504.001-1.972.062Z" clip-rule="evenodd"/>
</symbol>
<symbol id="checkbox" viewBox="0 0 16 16">
	<path fill-rule="evenodd" d="M12.285 4.033a.5.5 0 0 1 .126.696l-4.897 7.073a1.5 1.5 0 0 1-2.228.269l-1.618-1.434a.5.5 0 1 1 .664-.749l1.617 1.434a.5.5 0 0 0 .743-.09L11.59 4.16a.5.5 0 0 1 .696-.127Z" clip-rule="evenodd"/>
</symbol>
<symbol id="favorite" viewBox="0 0 24 24">
	<path d="m4.45 13.908 6.953 6.531c.24.225.36.338.5.366a.5.5 0 0 0 .193 0c.142-.028.261-.14.5-.366l6.953-6.53a5.203 5.203 0 0 0 .549-6.983l-.31-.399c-1.968-2.536-5.918-2.111-7.301.787a.54.54 0 0 1-.974 0C10.13 4.416 6.18 3.99 4.212 6.527l-.31.4a5.203 5.203 0 0 0 .549 6.981Z"/>
</symbol>
<symbol id="search" viewBox="0 0 24 24">
	<path fill-rule="evenodd" d="M11 5.5a5.5 5.5 0 1 0 0 11 5.5 5.5 0 0 0 0-11ZM4.5 11a6.5 6.5 0 1 1 13 0 6.5 6.5 0 0 1-13 0ZM16.646 16.646a.5.5 0 0 1 .708 0l3 3a.5.5 0 0 1-.708.708l-3-3a.5.5 0 0 1 0-.708Z" clip-rule="evenodd"/>
</symbol>
<symbol id="user" viewBox="0 0 24 24">
	<path fill-rule="evenodd" d="M12 7.5a2.5 2.5 0 1 0 0 5 2.5 2.5 0 0 0 0-5ZM8.5 10a3.5 3.5 0 1 1 7 0 3.5 3.5 0 0 1-7 0Z" clip-rule="evenodd"/>
	<path fill-rule="evenodd" d="M12 3.5a8.5 8.5 0 1 0 0 17 8.5 8.5 0 0 0 0-17ZM2.5 12a9.5 9.5 0 1 1 19 0 9.5 9.5 0 0 1-19 0Z" clip-rule="evenodd"/>
	<path fill-rule="evenodd" d="M7.956 15.608c1.17-.723 2.59-1.108 4.044-1.108 1.453 0 2.875.386 4.044 1.108 1.17.723 2.034 1.75 2.43 2.94a.5.5 0 1 1-.948.316c-.312-.937-1.008-1.788-2.007-2.405-1-.618-2.237-.959-3.519-.959-1.281 0-2.518.34-3.519.959-1 .617-1.695 1.468-2.006 2.405a.5.5 0 0 1-.95-.316c.397-1.19 1.261-2.217 2.431-2.94Z" clip-rule="evenodd"/>
</symbol>
</svg>